<?xml version="1.0" encoding="utf-8"?>
<!-- Generator: Adobe Illustrator 23.0.6, SVG Export Plug-In . SVG Version: 6.00 Build 0)  -->
<svg version="1.1" id="Layer_1" xmlns="http://www.w3.org/2000/svg" xmlns:xlink="http://www.w3.org/1999/xlink" x="0px" y="0px"
	 viewBox="0 0 201 271" style="enable-background:new 0 0 201 271;" xml:space="preserve">
<style type="text/css">
	.st0{fill:#BB722C;}
	.st1{fill:#FFFFFF;}
</style>
<path class="st0" d="M68.6,30.7c0,0,1.7-24.7,15.6-24.7h17.3v13.7H85.9c0,0-0.9,0-0.9,11H68.6z"/>
<path class="st0" d="M104.3,38.9H90.6c-21.9-2.7-24.7,16.4-24.7,16.4l-19.2,93.2c0,0-13.7,5.5,57.6,5.5V38.9z"/>
<path class="st0" d="M98.8,38.9h13.7c21.9-2.7,24.7,16.4,24.7,16.4l19.2,93.2c0,0,13.7,5.5-57.6,5.5V38.9z"/>
<path class="st0" d="M131.7,30.7c0,0-1.7-24.7-15.6-24.7H98.8v13.7h15.6c0,0,0.9,0,0.9,11H131.7z"/>
<g>
	<path class="st1" d="M15.4,200.1c-1.5,0.8-1.6,1-0.6,3.5l4.6,11.7c1,2.5,1.2,2.6,2.8,2.2l0.3,0.8l-5.2,2l-0.3-0.8
		c1.5-0.8,1.6-1.1,0.6-3.6l-2.3-5.8L9,212.8l2.3,5.8c1,2.5,1.2,2.6,2.8,2.2l0.3,0.8l-5.1,2L9,222.7c1.4-0.8,1.5-1,0.5-3.5l-4.6-11.7
		c-1-2.5-1.2-2.6-2.8-2.2l-0.3-0.9l5.1-2l0.3,0.9c-1.4,0.8-1.5,1-0.5,3.5l1.8,4.6l6.4-2.5l-1.8-4.6c-1-2.5-1.2-2.6-2.8-2.2l-0.3-0.9
		l5.1-2L15.4,200.1z"/>
	<path class="st1" d="M32.1,210c0.2,1.2,0.8,4.1,0.9,5.1l-9.4,3l-0.3-0.9c1.7-0.8,1.7-1.1,1-3.6l-3.8-11.8c-0.9-2.8-1.1-2.8-2.6-2.5
		l-0.3-0.9l8.7-2.8c0.3,0.8,1,2.8,1.6,4.4l-0.6,0.3c-0.6-1.2-1-1.8-1.5-2.4c-0.5-0.6-1.1-0.6-2.4-0.2l-1.4,0.5
		c-0.6,0.2-0.6,0.3-0.4,1.2l2.2,6.8l1.8-0.6c1.7-0.6,1.8-0.8,1.4-3l0.6-0.2l1.9,5.9l-0.6,0.2c-1-2.1-1.2-2.2-2.9-1.7l-1.8,0.6
		L26,213c0.5,1.4,0.8,2.1,1.3,2.3c0.5,0.2,1.2,0,2.1-0.3c1.4-0.4,1.9-0.8,2.1-1.8c0.1-0.7,0.2-1.9,0-3.2L32.1,210z"/>
	<path class="st1" d="M42.1,212.6l-0.2-0.9c1.1-0.6,1.2-0.9,0.7-2.1c-0.6-1.1-1.3-2.6-2.2-4.2l-4.2,1.1c0,1.5,0.1,2.8,0.2,4
		c0.1,2,0.3,2.3,1.9,2.2l0.2,0.9l-4.3,1.1l-0.2-0.9c1.2-0.6,1.4-0.9,1.4-3.8L35.1,193l0.6-0.5c2.7,5.1,5.4,10.2,8.1,15.3
		c1.3,2.5,1.7,2.8,3,2.7l0.2,0.9L42.1,212.6z M35.9,197L35.9,197c0,2.7,0.1,5.5,0.1,8.1l3.6-0.9L35.9,197z"/>
	<path class="st1" d="M49.6,189.8c2.5-0.5,4.6-0.1,6.2,1.5c1.3,1.3,2.5,3.4,3,6.4c0.7,3.7,0.4,6.6-0.8,8.8c-1.2,2.1-3,3.3-5.5,3.8
		l-4.9,1l-0.2-0.9c1.7-0.5,1.8-0.8,1.3-3.4l-2.5-12.3c-0.5-2.7-0.7-2.8-2.3-2.7l-0.2-1L49.6,189.8z M50.5,206.2
		c0.5,2.5,1.3,2.9,2.7,2.6c3.7-0.7,4.6-5.4,3.6-10.3c-0.6-3.2-2-5.7-3.7-6.9c-1.1-0.8-2.4-1-3.8-0.7c-0.9,0.2-1.3,0.5-1.5,0.7
		c-0.1,0.3-0.1,0.6,0.1,1.9L50.5,206.2z"/>
	<path class="st1" d="M73.7,186.9c-1.6,0.4-1.8,0.6-1.4,3.3l1.7,12.5c0.4,2.7,0.6,2.8,2.2,2.8l0.1,0.9l-5.5,0.8l-0.1-0.9
		c1.7-0.5,1.8-0.6,1.5-3.3l-0.9-6.1l-6.9,0.9l0.9,6.1c0.4,2.6,0.6,2.8,2.2,2.8l0.1,0.9l-5.4,0.8l-0.1-0.9c1.6-0.4,1.7-0.6,1.3-3.3
		l-1.7-12.5c-0.4-2.7-0.5-2.8-2.2-2.8l-0.1-0.9l5.4-0.7l0.1,0.9c-1.5,0.4-1.7,0.6-1.3,3.3l0.7,4.9l6.9-0.9l-0.7-4.9
		c-0.4-2.6-0.6-2.8-2.2-2.8l-0.1-0.9l5.4-0.7L73.7,186.9z"/>
	<path class="st1" d="M89.9,185.6c-1.2,0.2-1.6,0.7-1.6,2c0,0.9,0,2.2,0.3,5l0.2,2.5c0.3,3.7,0.1,6.5-0.9,8.5
		c-0.8,1.6-2.1,2.4-3.5,2.5c-1.2,0.1-2.4-0.2-3.4-1.3c-1.3-1.4-2.1-3.7-2.4-7.5l-0.6-7.5c-0.2-2.9-0.4-3.1-2-3.1l-0.1-1l5.4-0.4
		l0.1,1c-1.6,0.3-1.7,0.5-1.5,3.4l0.5,6.9c0.4,5.2,2,8,4.4,7.8c2.9-0.2,3.6-4,3.2-9.2l-0.2-2.4c-0.2-2.8-0.4-4.1-0.5-5.1
		c-0.2-1.2-0.7-1.6-2.1-1.6l-0.1-1l4.9-0.4L89.9,185.6z"/>
	<path class="st1" d="M105.9,185.3c-1.1,0.1-1.6,0.5-1.7,1.9c-0.1,1-0.1,2.4,0,5.4l0.2,12.7l-0.6,0l-9.1-16.4l0,0l0.1,7.7
		c0,2.9,0.1,4.4,0.2,5.3c0.1,1.6,0.6,2,2,2.2l0,0.9l-4.8,0.1l0-0.9c1.2-0.1,1.7-0.6,1.7-2.1c0.1-1,0.1-2.5,0.1-5.4l-0.1-6.8
		c0-2.3-0.1-2.5-0.5-3.2c-0.4-0.8-0.9-1-1.8-1.1l0-1l3.1,0l8.8,15.5l0.1,0l-0.1-7.4c0-2.9-0.1-4.4-0.2-5.3c-0.1-1.5-0.6-1.9-2-2l0-1
		l4.8-0.1L105.9,185.3z"/>
	<path class="st1" d="M118.6,190c-0.1-1.6-0.3-2.4-0.6-3c-0.3-0.8-0.6-1-2.2-1.1l-1.4-0.1l-0.7,15.4c-0.1,2.5,0,2.9,2,3.2l0,0.9
		l-6-0.3l0-0.9c1.9-0.1,2-0.5,2.2-3l0.7-15.4l-1.2-0.1c-1.8-0.1-2.2,0.2-2.5,0.9c-0.3,0.5-0.5,1.5-0.8,2.9l-0.6,0
		c0.2-2.1,0.4-4.1,0.5-5.9l0.4,0c0.3,0.8,0.5,0.8,1.1,0.9l8.2,0.4c0.6,0,0.7-0.2,1.1-0.8l0.4,0c-0.1,1.4-0.1,3.9-0.1,5.8L118.6,190z
		"/>
	<path class="st1" d="M130.3,201.5c-0.2,1.2-0.9,4-1.2,5l-9.9-1l0.1-0.9c1.8,0,2-0.3,2.3-2.9l1.2-12.4c0.3-2.9,0.1-3-1.4-3.4
		l0.1-0.9l9.1,0.9c-0.1,0.8-0.2,2.9-0.3,4.7l-0.6,0.1c-0.1-1.3-0.2-2.1-0.4-2.8c-0.2-0.7-0.8-1-2.1-1.1l-1.5-0.1
		c-0.7-0.1-0.7,0-0.8,1l-0.7,7.1l1.8,0.2c1.8,0.2,2-0.1,2.4-2.2l0.6,0.1l-0.6,6.2l-0.6-0.1c-0.1-2.3-0.2-2.5-1.9-2.7l-1.8-0.2
		l-0.6,5.8c-0.1,1.5-0.1,2.2,0.2,2.6c0.4,0.4,1.1,0.5,2,0.6c1.5,0.1,2.1,0,2.6-0.8c0.4-0.6,0.9-1.7,1.3-2.9L130.3,201.5z"/>
	<path class="st1" d="M142.5,208.7c-0.2,0-0.5-0.1-0.7-0.2c-1.6-0.4-2.3-1.2-2.9-3.4c-0.5-1.6-0.8-3.6-1.2-5.2
		c-0.2-1-0.5-1.4-1.5-1.5l-0.6-0.1l-0.7,4.9c-0.4,2.6-0.2,2.9,1.3,3.4l-0.1,0.9l-5.4-0.8l0.1-0.9c1.6,0,1.9-0.2,2.3-2.8l1.9-12.4
		c0.4-2.7,0.3-2.9-1.3-3.3l0.1-0.9l5.1,0.8c1.5,0.2,2.4,0.7,3.1,1.6c0.7,0.9,1,2.4,0.7,4.3c-0.4,2.7-1.7,4.2-3.3,4.9
		c0.2,1.1,0.7,3.3,1.1,4.8c0.5,1.8,0.8,2.7,1.1,3.5c0.4,1,0.8,1.4,1.2,1.6L142.5,208.7z M136.6,197.4c1,0.2,1.7,0,2.3-0.6
		c0.9-0.8,1.4-2,1.6-3.7c0.5-3.4-0.7-4.8-2.2-5c-0.6-0.1-0.9,0-1.1,0.1c-0.2,0.2-0.3,0.5-0.4,1.3l-1.2,7.7L136.6,197.4z"/>
	<path class="st1" d="M152.9,194.6c0.1-2.1-0.1-4.4-1.8-4.8c-1.5-0.3-2.5,1.2-2.9,2.9c-0.4,2.2,0.3,3.4,1.6,5
		c1.4,1.7,2.9,3.5,2.2,6.9c-0.7,3.3-3,5.6-5.7,5.1c-0.8-0.2-1.4-0.5-1.9-0.9c-0.5-0.4-0.7-0.7-0.8-0.9c0-0.6,0.3-3.5,0.4-5.1
		l0.7-0.2c-0.1,2,0.3,5.5,2.3,5.9c1.4,0.3,2.6-1,3-3.2c0.4-2.3-0.4-3.5-1.7-5.1c-1.2-1.4-2.7-3.3-2.1-6.7c0.6-3.1,2.7-5.4,5.3-4.8
		c0.9,0.2,1.8,0.7,2.4,1.3c-0.1,1.1-0.3,2.4-0.5,4.5L152.9,194.6z"/>
	<path class="st1" d="M167.8,193.2c1.4,0.4,2.4,1,2.9,2.2c0.5,1.1,0.6,2.7,0.1,4.7c-1.1,4-3.5,5.4-5.5,5.2c-0.3,0-0.7-0.1-0.9-0.2
		l-1.3-1l-1.3,4.7c-0.7,2.6-0.6,2.8,1.1,3.5l-0.2,0.9l-5.4-1.5l0.2-0.9c1.6,0.2,1.8,0,2.5-2.5l3.3-12.1c0.7-2.7,0.6-2.9-0.8-3.4
		l0.3-0.9L167.8,193.2z M163.4,203c0.2,0.2,0.7,0.6,1.3,0.8c1.2,0.3,3-0.3,4.1-4.2c0.9-3.3,0-5.1-1.6-5.5c-0.5-0.1-1-0.1-1.2,0.1
		c-0.2,0.2-0.4,0.5-0.6,1.3L163.4,203z"/>
	<path class="st1" d="M179.3,218.6c-0.2-0.1-0.4-0.2-0.7-0.3c-1.5-0.6-2.1-1.6-2.3-3.8c-0.2-1.7-0.2-3.7-0.3-5.3
		c-0.1-1-0.3-1.5-1.3-1.8l-0.5-0.2l-1.5,4.7c-0.8,2.5-0.7,2.8,0.7,3.5l-0.3,0.9l-5.2-1.7l0.3-0.9c1.6,0.3,1.9,0.1,2.7-2.4l3.9-11.9
		c0.8-2.6,0.7-2.8-0.7-3.4l0.3-0.9l4.9,1.6c1.4,0.5,2.3,1.1,2.8,2.1c0.5,1,0.6,2.5,0,4.4c-0.9,2.6-2.4,3.8-4.1,4.3
		c0,1.1,0.1,3.3,0.3,4.9c0.2,1.8,0.3,2.8,0.5,3.7c0.2,1,0.5,1.5,0.9,1.8L179.3,218.6z M175.5,206.5c1,0.3,1.7,0.3,2.4-0.2
		c1-0.7,1.7-1.7,2.2-3.4c1.1-3.2,0.1-4.9-1.3-5.3c-0.6-0.2-0.9-0.2-1.1-0.1c-0.2,0.1-0.4,0.4-0.6,1.2l-2.4,7.4L175.5,206.5z"/>
	<path class="st1" d="M194,201.5c3.3,1.3,4.7,6.4,2.4,12.3c-2.5,6.4-7.1,9.1-10.6,7.7c-3.5-1.4-4.7-6.7-2.4-12.4
		C185.5,203.7,189.9,199.8,194,201.5L194,201.5z M193.2,202.4c-2.1-0.8-5.2,1.1-7.4,6.7c-2.2,5.4-1.8,10.3,0.9,11.4
		c2.1,0.8,5.1-1.1,7.4-6.8C196.5,207.5,195.7,203.4,193.2,202.4L193.2,202.4z"/>
</g>
<path class="st0" d="M90,158h24c0,0-1,18-12,19c0,0-9-1-12-18"/>
<g>
	<path class="st1" d="M45.2,258.6l3.7-18.3L52,241c0.5,0.1,0.9,0.3,1.2,0.6c0.3,0.3,0.6,0.6,0.8,1.1c0.2,0.4,0.3,0.9,0.3,1.5
		c0,0.5,0,1.1-0.1,1.7c-0.1,0.5-0.2,1-0.4,1.5c-0.2,0.4-0.4,0.8-0.6,1.2c-0.2,0.3-0.5,0.6-0.8,0.9c-0.3,0.2-0.6,0.4-1,0.5l0,0.1
		c0.4,0.1,0.7,0.4,0.9,0.7s0.5,0.7,0.6,1.1c0.1,0.4,0.2,0.9,0.2,1.4s0,1.1-0.2,1.7c-0.2,0.8-0.4,1.5-0.7,2.1s-0.7,1.1-1.1,1.5
		c-0.4,0.4-0.8,0.7-1.3,0.9c-0.5,0.2-1,0.2-1.5,0.1L45.2,258.6z M48,250.1l-1.4,7.2l1.9,0.4c0.8,0.2,1.5,0,2.1-0.6
		c0.6-0.5,1-1.4,1.2-2.6c0.5-2.3-0.3-3.7-2.3-4.1L48,250.1z M49.6,242.1l-1.3,6.5l1.5,0.3c0.4,0.1,0.7,0.1,1.1,0
		c0.3-0.1,0.7-0.3,0.9-0.5c0.3-0.3,0.5-0.6,0.7-1c0.2-0.4,0.4-0.9,0.5-1.4c0.4-2-0.2-3.1-1.7-3.4L49.6,242.1z"/>
	<path class="st1" d="M62.6,261.8l-0.9-5.5c-0.1-0.5-0.2-1-0.3-1.4c-0.1-0.4-0.2-0.7-0.4-0.9c-0.1-0.2-0.3-0.4-0.5-0.5
		c-0.2-0.1-0.4-0.2-0.6-0.2l-1.3-0.2l-1.3,8l-1.1-0.2l3-18.4l3.3,0.5c0.4,0.1,0.8,0.2,1.2,0.5s0.7,0.6,0.9,1.1
		c0.2,0.5,0.4,1,0.5,1.6s0.1,1.4-0.1,2.2c-0.1,0.6-0.3,1.2-0.5,1.8c-0.2,0.5-0.5,1-0.8,1.4c-0.3,0.4-0.6,0.7-1,0.9
		c-0.4,0.2-0.8,0.4-1.2,0.5l0,0.1c0.1,0.1,0.3,0.3,0.4,0.5c0.1,0.2,0.2,0.4,0.3,0.6c0.1,0.3,0.2,0.5,0.2,0.9
		c0.1,0.3,0.1,0.7,0.2,1.1l1,6L62.6,261.8z M60.2,244.1l-1.2,7.3l1.9,0.3c0.4,0.1,0.7,0,1.1-0.1c0.3-0.1,0.7-0.3,0.9-0.6
		c0.3-0.3,0.5-0.7,0.7-1.1c0.2-0.5,0.4-1,0.4-1.6c0.2-1.1,0.1-1.9-0.2-2.6c-0.3-0.7-0.9-1.1-1.7-1.2L60.2,244.1z"/>
	<path class="st1" d="M68,262.6l2.3-18.5l5.6,0.7l-0.2,1.6l-4.5-0.6l-0.9,6.8l4.2,0.5l-0.2,1.5l-4.2-0.5l-0.9,7l4.8,0.6l-0.2,1.6
		L68,262.6z"/>
	<path class="st1" d="M88.7,264.7l-1.1-0.1l-1.4-14c0-0.3-0.1-0.7-0.1-1s0-0.6,0-0.9l0,0c-0.1,0.5-0.2,1.1-0.4,1.8l-3.6,13.6
		l-1.1-0.1l-2-18.8l1.2,0.1l1.4,14.8c0,0.3,0.1,0.6,0.1,0.9c0,0.3,0,0.6,0,0.8l0,0c0.1-0.4,0.2-1,0.4-1.7l3.8-14.4l0.8,0.1l1.4,14.8
		c0,0.3,0,0.6,0.1,0.9s0,0.6,0,0.8l0,0c0-0.2,0.1-0.4,0.1-0.6c0-0.2,0.1-0.5,0.2-0.7l3.7-14.8l1.2,0.1L88.7,264.7z"/>
	<path class="st1" d="M97.3,265l-1.1,0l0.6-18.6l1.1,0L97.3,265z"/>
	<path class="st1" d="M110.5,265l-6.6-14.9c-0.1-0.2-0.2-0.4-0.2-0.6c-0.1-0.2-0.1-0.4-0.2-0.6h0c0,0.2,0,0.4,0,0.6c0,0.3,0,0.6,0,1
		l0.2,14.4l-1.1,0l-0.3-18.6l1.2,0l6.5,14.7c0.1,0.2,0.2,0.5,0.3,0.7c0.1,0.2,0.2,0.4,0.2,0.6h0c0-0.3,0-0.6-0.1-1
		c0-0.4,0-0.7,0-1.2l-0.2-13.8l1.1,0l0.3,18.6L110.5,265z"/>
	<path class="st1" d="M125.5,262.8c-1.1,1.2-2.3,1.8-3.6,1.9c-0.8,0.1-1.6-0.1-2.3-0.5c-0.7-0.4-1.3-1-1.8-1.8s-1-1.7-1.3-2.9
		c-0.3-1.1-0.6-2.4-0.7-3.7c-0.1-0.9-0.1-1.8,0-2.6c0.1-0.8,0.2-1.6,0.3-2.4s0.4-1.4,0.7-2.1c0.3-0.6,0.6-1.2,1-1.6
		c0.4-0.5,0.9-0.8,1.4-1.1c0.5-0.3,1.1-0.4,1.7-0.5c1.1-0.1,2.2,0.2,3.1,0.7l0.2,1.9c-1.1-0.8-2.1-1.2-3.3-1.1
		c-0.7,0.1-1.3,0.3-1.9,0.8s-1,1.1-1.3,1.8c-0.3,0.8-0.6,1.6-0.7,2.6c-0.1,1-0.2,2.1-0.1,3.2c0.1,1.1,0.3,2.2,0.5,3.2
		c0.3,1,0.6,1.8,1,2.5c0.4,0.7,0.9,1.2,1.5,1.5c0.6,0.4,1.2,0.5,2,0.4c1-0.1,1.8-0.5,2.5-1.2l-0.5-5.7l-2.6,0.2l-0.1-1.6l3.7-0.3
		L125.5,262.8z"/>
	<path class="st1" d="M145,260.3c-0.7,0.8-1.7,1.4-2.8,1.6c-0.8,0.2-1.6,0.1-2.3-0.3c-0.7-0.3-1.4-0.9-2-1.6
		c-0.6-0.7-1.2-1.6-1.6-2.7c-0.5-1.1-0.8-2.3-1.1-3.6c-0.3-1.4-0.4-2.7-0.3-3.9c0-1.2,0.2-2.4,0.5-3.3c0.3-1,0.8-1.8,1.4-2.4
		c0.6-0.6,1.3-1,2.2-1.2c1-0.2,1.9-0.1,2.7,0.2l0.3,1.8c-0.9-0.5-1.9-0.7-2.8-0.5c-0.7,0.1-1.3,0.5-1.8,1c-0.5,0.5-0.9,1.2-1.1,2
		s-0.4,1.7-0.4,2.7c0,1,0.1,2.1,0.3,3.3c0.2,1.1,0.5,2,0.8,2.9c0.4,0.9,0.8,1.7,1.3,2.3c0.5,0.6,1,1.1,1.7,1.4
		c0.6,0.3,1.3,0.4,2,0.3c1.1-0.2,2-0.8,2.7-1.7L145,260.3z"/>
	<path class="st1" d="M154.7,258.9c-0.8,0.2-1.6,0.2-2.4-0.1s-1.5-0.8-2.2-1.5c-0.7-0.7-1.3-1.6-1.8-2.6s-1-2.2-1.4-3.5
		c-0.4-1.4-0.6-2.7-0.7-3.9c-0.1-1.2,0-2.3,0.2-3.3c0.2-1,0.6-1.8,1.1-2.4c0.5-0.7,1.2-1.1,2.1-1.3c0.8-0.2,1.6-0.2,2.3,0.1
		c0.8,0.3,1.5,0.8,2.1,1.4c0.7,0.7,1.3,1.5,1.8,2.6c0.5,1,1,2.2,1.4,3.5c0.4,1.4,0.6,2.6,0.7,3.9c0.1,1.2,0,2.3-0.2,3.3
		s-0.6,1.8-1.1,2.5S155.5,258.6,154.7,258.9z M149.9,241.9c-0.7,0.2-1.2,0.6-1.6,1.1c-0.4,0.6-0.7,1.2-0.8,2
		c-0.2,0.8-0.2,1.7-0.1,2.7c0.1,1,0.3,2,0.6,3.1c0.3,1,0.6,2,1.1,2.8s0.9,1.6,1.5,2.2c0.5,0.6,1.1,1.1,1.8,1.3
		c0.6,0.3,1.3,0.3,2,0.1c0.7-0.2,1.2-0.6,1.7-1.1s0.7-1.2,0.9-2c0.2-0.8,0.2-1.7,0.1-2.7c-0.1-1-0.3-2.1-0.6-3.2
		c-0.3-1-0.7-2-1.1-2.9c-0.4-0.9-0.9-1.6-1.4-2.3c-0.5-0.6-1.1-1-1.7-1.3C151.3,241.7,150.6,241.6,149.9,241.9z"/>
	<path class="st1" d="M164.2,255.8c-0.2,0.1-0.4,0-0.6-0.2s-0.4-0.4-0.5-0.8c-0.1-0.3-0.2-0.6-0.1-0.9s0.2-0.5,0.4-0.5
		c0.1,0,0.2,0,0.3,0s0.2,0.1,0.3,0.2c0.1,0.1,0.2,0.2,0.3,0.3s0.2,0.3,0.2,0.5c0.1,0.2,0.1,0.3,0.1,0.5c0,0.2,0,0.3,0,0.4
		c0,0.1-0.1,0.2-0.1,0.3C164.3,255.7,164.3,255.7,164.2,255.8z"/>
</g>
<circle class="st0" cx="105" cy="225" r="7"/>
<path class="st0" d="M94,222l-64,4l64,3C94,229,91,226,94,222z"/>
<path class="st0" d="M116.1,222l64,4l-64,3C116.1,229,119.1,226,116.1,222z"/>
</svg>
